<svg width="40" height="40" viewBox="0 0 40 40" fill="none" xmlns="http://www.w3.org/2000/svg">
<rect width="40" height="40" rx="20" fill="url(#paint0_linear_1046_7)"/>
<path d="M26 26.5C26 27.2956 25.6839 28.0587 25.1213 28.6213C24.5587 29.1839 23.7956 29.5 23 29.5H12.5C11.7044 29.5 10.9413 29.1839 10.3787 28.6213C9.81607 28.0587 9.5 27.2956 9.5 26.5V16C9.5 15.2044 9.81607 14.4413 10.3787 13.8787C10.9413 13.3161 11.7044 13 12.5 13V14.5C12.1022 14.5 11.7206 14.658 11.4393 14.9393C11.158 15.2206 11 15.6022 11 16V26.5C11 26.8978 11.158 27.2794 11.4393 27.5607C11.7206 27.842 12.1022 28 12.5 28H23C23.3978 28 23.7794 27.842 24.0607 27.5607C24.342 27.2794 24.5 26.8978 24.5 26.5H26Z" fill="white"/>
<path d="M17 10C16.6022 10 16.2206 10.158 15.9393 10.4393C15.658 10.7206 15.5 11.1022 15.5 11.5V22C15.5 22.3978 15.658 22.7794 15.9393 23.0607C16.2206 23.342 16.6022 23.5 17 23.5H27.5C27.8978 23.5 28.2794 23.342 28.5607 23.0607C28.842 22.7794 29 22.3978 29 22V11.5C29 11.1022 28.842 10.7206 28.5607 10.4393C28.2794 10.158 27.8978 10 27.5 10H17ZM17 8.5H27.5C28.2956 8.5 29.0587 8.81607 29.6213 9.37868C30.1839 9.94129 30.5 10.7044 30.5 11.5V22C30.5 22.7956 30.1839 23.5587 29.6213 24.1213C29.0587 24.6839 28.2956 25 27.5 25H17C16.2044 25 15.4413 24.6839 14.8787 24.1213C14.3161 23.5587 14 22.7956 14 22V11.5C14 10.7044 14.3161 9.94129 14.8787 9.37868C15.4413 8.81607 16.2044 8.5 17 8.5Z" fill="white"/>
<defs>
<linearGradient id="paint0_linear_1046_7" x1="-0.16" y1="33.6" x2="39.84" y2="33.6" gradientUnits="userSpaceOnUse">
<stop stop-color="#FF8080"/>
<stop offset="1" stop-color="#8E68AB"/>
</linearGradient>
</defs>
</svg>
