<svg width="50" height="50" viewBox="0 0 50 50" fill="none" xmlns="http://www.w3.org/2000/svg">
<path d="M47.3054 27.1882C46.4703 25.9531 45.2906 24.9718 43.8953 24.382C42.9671 23.989 41.9429 23.7718 40.8789 23.7718H40.8765H40.8734C39.2109 23.7718 37.6546 24.3031 36.3921 25.1992C35.8796 25.5632 35.4125 25.9882 35.0039 26.464L27.3031 34.2046C27.064 34.4085 26.8062 34.5851 26.5226 34.7195C26.0648 34.9374 25.5601 35.0601 25.0125 35.0617C24.4656 35.0601 23.9601 34.9382 23.5039 34.7195C23.0437 34.5015 22.6367 34.182 22.3109 33.7945L22.3007 33.8031L20.9546 32.4835L17.9726 35.4671L19.8539 37.3257L19.8664 37.3132C20.4093 37.7976 21.0203 38.2085 21.6867 38.5273C22.6929 39.007 23.8234 39.2773 25.0054 39.2796H25.0125H25.021C26.2023 39.2773 27.3328 39.007 28.339 38.5273C29.0007 38.2117 29.607 37.8046 30.1468 37.3249L30.1476 37.3257L30.164 37.3093C30.3898 37.1062 30.6046 36.8906 30.8062 36.6632L35.9234 31.5359L37.246 30.1874L38.6359 28.7882C38.7007 28.7359 38.7656 28.6851 38.8328 28.6382C39.414 28.2273 40.107 27.9898 40.8757 27.989C41.6156 27.9898 42.2843 28.2093 42.8523 28.5914C43.4179 28.9726 43.8687 29.5171 44.1351 30.1492C44.3132 30.5703 44.4117 31.0304 44.4117 31.5249C44.4117 32.2648 44.1921 32.9335 43.8093 33.5007C43.4281 34.0656 42.8835 34.5164 42.2515 34.7843C41.8289 34.9624 41.3695 35.0609 40.8765 35.0609C40.3242 35.0609 39.8156 34.939 39.3554 34.7187C39.0734 34.5843 38.8125 34.4078 38.5757 34.2039L36.8484 32.4656L33.8648 35.4492L35.071 36.6624C35.2734 36.8898 35.4875 37.1054 35.7132 37.3085L35.7296 37.3249L35.7304 37.3242C36.2703 37.8039 36.8781 38.2109 37.5382 38.5265C38.5484 39.0093 39.6859 39.2789 40.8726 39.2789H40.875H40.8796C42.4773 39.2789 43.9789 38.789 45.2125 37.9546C46.4484 37.1179 47.4289 35.939 48.0203 34.5445C48.4132 33.6156 48.6304 32.5898 48.6296 31.5257C48.6312 29.9281 48.1414 28.4242 47.3054 27.1882ZM22.9789 28.639C23.557 28.2312 24.2468 27.9937 25.0117 27.9906C25.7765 27.9937 26.4664 28.2312 27.0453 28.639C27.1125 28.6867 27.1781 28.7367 27.2421 28.789L28.6328 30.1882L29.0726 30.6304L32.0273 27.6195L30.8765 26.4632C30.4656 25.9875 30 25.5625 29.4867 25.1984C28.2281 24.3031 26.6742 23.7742 25.0187 23.7718V23.771H25.0125H25.0062V23.7718C23.35 23.7742 21.7976 24.3039 20.539 25.1984C20.0867 25.5195 19.6742 25.8898 19.3007 26.2968L19.2859 26.2851L11.8445 33.8007L11.8367 33.7937C11.5109 34.1812 11.1039 34.4999 10.6437 34.7187C10.1835 34.9382 9.67574 35.0609 9.12417 35.0609C8.63042 35.0609 8.17027 34.9624 7.74839 34.7843C7.11636 34.5164 6.57183 34.0656 6.1898 33.5007C5.80855 32.9328 5.58902 32.2648 5.58745 31.5249C5.58745 31.0304 5.68667 30.5703 5.86402 30.1492C6.1312 29.5164 6.58199 28.9726 7.14761 28.5914C7.7148 28.2093 8.38355 27.989 9.12339 27.989C9.89214 27.9898 10.5859 28.2273 11.1656 28.6382C11.2335 28.6859 11.2992 28.7359 11.3625 28.7882L12.7523 30.1874L13.2023 30.6406L16.157 27.6296L14.996 26.4625C14.5851 25.9867 14.1195 25.5617 13.6062 25.1976C12.3445 24.3015 10.7875 23.7703 9.12574 23.7703H9.12183H9.11949C8.05542 23.7703 7.0312 23.9875 6.10308 24.3804C4.70855 24.9703 3.52886 25.9515 2.69292 27.1867C1.8562 28.4226 1.36636 29.9265 1.36792 31.5249C1.36714 32.589 1.58433 33.6148 1.9773 34.5437C2.56714 35.9382 3.54839 37.1171 4.78433 37.9539C6.01871 38.7882 7.51949 39.2781 9.11792 39.2781H9.12183H9.12417C10.3109 39.2781 11.4468 39.0085 12.4578 38.5257C13.125 38.207 13.7359 37.796 14.2789 37.3117L14.2914 37.3242L22.7812 28.7874C22.846 28.7367 22.9109 28.6867 22.9789 28.639Z" fill="#3C7377"/>
<path d="M40.6132 22.5154C42.8124 22.5154 44.5976 20.7318 44.5976 18.5303C44.5976 16.3311 42.8132 14.5459 40.6132 14.5459C38.4124 14.5459 36.6281 16.3303 36.6281 18.5303C36.6288 20.7318 38.4124 22.5154 40.6132 22.5154Z" fill="#3C7377"/>
<path d="M25.0218 21.6382C28.0366 21.6382 30.482 19.1944 30.482 16.1788C30.482 13.1647 28.0366 10.7202 25.0218 10.7202C22.007 10.7202 19.5616 13.1647 19.5616 16.1788C19.5624 19.1944 22.007 21.6382 25.0218 21.6382Z" fill="#3C7377"/>
<path d="M5.23511 18.5312C5.23511 16.332 7.0187 14.5469 9.22026 14.5469C11.4203 14.5469 13.2054 16.3312 13.2054 18.5312C13.2054 20.7328 11.421 22.5172 9.22026 22.5172C7.0187 22.5164 5.23511 20.7328 5.23511 18.5312Z" fill="#3C7377"/>
</svg>
