<svg width="40" height="40" viewBox="0 0 40 40" fill="none" xmlns="http://www.w3.org/2000/svg">
<path d="M37.8444 21.7505C37.1762 20.7624 36.2325 19.9774 35.1162 19.5055C34.3737 19.1911 33.5544 19.0174 32.7031 19.0174H32.7012H32.6987C31.3687 19.0174 30.1237 19.4424 29.1137 20.1592C28.7037 20.4505 28.33 20.7905 28.0031 21.1711L21.8425 27.3636C21.6512 27.5267 21.445 27.668 21.2181 27.7755C20.8519 27.9499 20.4481 28.048 20.01 28.0492C19.5725 28.048 19.1681 27.9505 18.8031 27.7755C18.435 27.6011 18.1094 27.3455 17.8487 27.0355L17.8406 27.0424L16.7637 25.9867L14.3781 28.3736L15.8831 29.8605L15.8931 29.8505C16.3275 30.238 16.8162 30.5667 17.3494 30.8217C18.1544 31.2055 19.0587 31.4217 20.0044 31.4236H20.01H20.0169C20.9619 31.4217 21.8662 31.2055 22.6712 30.8217C23.2006 30.5692 23.6856 30.2436 24.1175 29.8599L24.1181 29.8605L24.1312 29.8474C24.3119 29.6849 24.4837 29.5124 24.645 29.3305L28.7387 25.2286L29.7969 24.1499L30.9087 23.0305C30.9606 22.9886 31.0125 22.948 31.0662 22.9105C31.5312 22.5817 32.0856 22.3917 32.7006 22.3911C33.2925 22.3917 33.8275 22.5674 34.2819 22.873C34.7344 23.178 35.095 23.6136 35.3081 24.1192C35.4506 24.4561 35.5294 24.8242 35.5294 25.2199C35.5294 25.8117 35.3537 26.3467 35.0475 26.8005C34.7425 27.2524 34.3069 27.613 33.8012 27.8274C33.4631 27.9699 33.0956 28.0486 32.7012 28.0486C32.2594 28.0486 31.8525 27.9511 31.4844 27.7749C31.2587 27.6674 31.05 27.5261 30.8606 27.363L29.4787 25.9724L27.0919 28.3592L28.0569 29.3299C28.2187 29.5117 28.39 29.6842 28.57 29.8467L28.5837 29.8599L28.5844 29.8592C29.0162 30.243 29.5025 30.5686 30.0306 30.8211C30.8387 31.2074 31.7487 31.423 32.6981 31.423H32.7H32.7037C33.9819 31.423 35.1831 31.0311 36.17 30.3636C37.1587 29.6942 37.9431 28.7511 38.4162 27.6355C38.7306 26.8924 38.9044 26.0717 38.9037 25.2205C38.905 23.9424 38.5131 22.7392 37.8444 21.7505ZM18.3831 22.9111C18.8456 22.5849 19.3975 22.3949 20.0094 22.3924C20.6212 22.3949 21.1731 22.5849 21.6362 22.9111C21.69 22.9492 21.7425 22.9892 21.7937 23.0311L22.9062 24.1505L23.2581 24.5042L25.6219 22.0955L24.7012 21.1705C24.3725 20.7899 24 20.4499 23.5894 20.1586C22.5825 19.4424 21.3394 19.0192 20.015 19.0174V19.0167H20.01H20.005V19.0174C18.68 19.0192 17.4381 19.443 16.4312 20.1586C16.0694 20.4155 15.7394 20.7117 15.4406 21.0374L15.4287 21.028L9.47561 27.0405L9.46936 27.0349C9.20874 27.3449 8.88311 27.5999 8.51499 27.7749C8.14686 27.9505 7.74061 28.0486 7.29936 28.0486C6.90436 28.0486 6.53624 27.9699 6.19874 27.8274C5.69311 27.613 5.25749 27.2524 4.95186 26.8005C4.64686 26.3461 4.47124 25.8117 4.46999 25.2199C4.46999 24.8242 4.54936 24.4561 4.69124 24.1192C4.90499 23.613 5.26561 23.178 5.71811 22.873C6.17186 22.5674 6.70686 22.3911 7.29874 22.3911C7.91374 22.3917 8.46874 22.5817 8.93249 22.9105C8.98686 22.9486 9.03936 22.9886 9.08999 23.0305L10.2019 24.1499L10.5619 24.5124L12.9256 22.1036L11.9969 21.1699C11.6681 20.7892 11.2956 20.4492 10.885 20.158C9.87561 19.4411 8.62999 19.0161 7.30061 19.0161H7.29749H7.29561C6.44436 19.0161 5.62499 19.1899 4.88249 19.5042C3.76686 19.9761 2.82311 20.7611 2.15436 21.7492C1.48499 22.738 1.09311 23.9411 1.09436 25.2199C1.09374 26.0711 1.26749 26.8917 1.58186 27.6349C2.05374 28.7505 2.83874 29.6936 3.82749 30.363C4.81499 31.0305 6.01561 31.4224 7.29436 31.4224H7.29749H7.29936C8.24874 31.4224 9.15749 31.2067 9.96624 30.8205C10.5 30.5655 10.9887 30.2367 11.4231 29.8492L11.4331 29.8592L18.225 23.0299C18.2769 22.9892 18.3287 22.9492 18.3831 22.9111Z" fill="currentColor"/>
<path d="M32.4906 18.0123C34.25 18.0123 35.6781 16.5855 35.6781 14.8242C35.6781 13.0648 34.2506 11.6367 32.4906 11.6367C30.73 11.6367 29.3025 13.0642 29.3025 14.8242C29.3031 16.5855 30.73 18.0123 32.4906 18.0123Z" fill="currentColor"/>
<path d="M20.0175 17.3105C22.4294 17.3105 24.3857 15.3555 24.3857 12.943C24.3857 10.5318 22.4294 8.57617 20.0175 8.57617C17.6057 8.57617 15.6494 10.5318 15.6494 12.943C15.65 15.3555 17.6057 17.3105 20.0175 17.3105Z" fill="currentColor"/>
<path d="M4.18811 14.8249C4.18811 13.0656 5.61499 11.6375 7.37624 11.6375C9.13624 11.6375 10.5644 13.065 10.5644 14.8249C10.5644 16.5862 9.13686 18.0137 7.37624 18.0137C5.61499 18.0131 4.18811 16.5862 4.18811 14.8249Z" fill="currentColor"/>
</svg>
